<svg xmlns="http://www.w3.org/2000/svg" xmlns:xlink="http://www.w3.org/1999/xlink" width="27px" height="25px" viewBox="0 0 21 25" version="1.1">
<path style=" stroke:none;fill-rule:nonzero;fill:rgb(0%,0%,0%);fill-opacity:1;" d="M 10.503906 6.882812 C 7.523438 6.882812 5.117188 9.390625 5.117188 12.496094 C 5.117188 15.601562 7.523438 18.105469 10.503906 18.105469 C 13.484375 18.105469 15.890625 15.601562 15.890625 12.496094 C 15.890625 9.390625 13.484375 6.882812 10.503906 6.882812 Z M 10.503906 16.140625 C 8.578125 16.140625 7.003906 14.507812 7.003906 12.496094 C 7.003906 10.484375 8.574219 8.847656 10.503906 8.847656 C 12.4375 8.847656 14.007812 10.484375 14.007812 12.496094 C 14.007812 14.507812 12.429688 16.140625 10.503906 16.140625 Z M 17.367188 6.65625 C 17.367188 7.382812 16.804688 7.964844 16.109375 7.964844 C 15.414062 7.964844 14.855469 7.378906 14.855469 6.65625 C 14.855469 5.933594 15.417969 5.347656 16.109375 5.347656 C 16.804688 5.347656 17.367188 5.933594 17.367188 6.65625 Z M 20.933594 7.984375 C 20.855469 6.230469 20.46875 4.679688 19.238281 3.398438 C 18.007812 2.117188 16.519531 1.71875 14.835938 1.628906 C 13.101562 1.527344 7.902344 1.527344 6.167969 1.628906 C 4.492188 1.714844 3 2.113281 1.765625 3.394531 C 0.535156 4.671875 0.15625 6.226562 0.0703125 7.976562 C -0.0273438 9.785156 -0.0273438 15.199219 0.0703125 17.007812 C 0.148438 18.757812 0.535156 20.3125 1.765625 21.59375 C 3 22.871094 4.484375 23.273438 6.167969 23.359375 C 7.902344 23.460938 13.101562 23.460938 14.835938 23.359375 C 16.519531 23.277344 18.007812 22.875 19.238281 21.59375 C 20.464844 20.3125 20.851562 18.761719 20.933594 17.007812 C 21.03125 15.199219 21.03125 9.789062 20.933594 7.984375 Z M 18.695312 18.945312 C 18.328125 19.902344 17.621094 20.640625 16.695312 21.023438 C 15.3125 21.597656 12.03125 21.464844 10.503906 21.464844 C 8.976562 21.464844 5.691406 21.59375 4.3125 21.023438 C 3.394531 20.644531 2.6875 19.90625 2.316406 18.945312 C 1.765625 17.503906 1.894531 14.085938 1.894531 12.496094 C 1.894531 10.902344 1.773438 7.480469 2.316406 6.046875 C 2.679688 5.089844 3.390625 4.351562 4.3125 3.964844 C 5.695312 3.394531 8.976562 3.527344 10.503906 3.527344 C 12.03125 3.527344 15.320312 3.398438 16.695312 3.964844 C 17.617188 4.347656 18.324219 5.082031 18.695312 6.046875 C 19.242188 7.484375 19.117188 10.902344 19.117188 12.496094 C 19.117188 14.085938 19.242188 17.507812 18.695312 18.945312 Z M 18.695312 18.945312 "/>
</svg>
