<svg xmlns="http://www.w3.org/2000/svg" xmlns:xlink="http://www.w3.org/1999/xlink" width="27px" height="25px" viewBox="0 0 21 25" version="1.1">
<path style=" stroke:none;fill-rule:nonzero;fill:rgb(0%,0%,0%);fill-opacity:1;" d="M 17.855469 4.742188 C 15.890625 2.691406 13.273438 1.5625 10.496094 1.5625 C 4.757812 1.5625 0.0898438 6.425781 0.0898438 12.402344 C 0.0898438 14.3125 0.566406 16.175781 1.476562 17.820312 L 0 23.4375 L 5.515625 21.929688 C 7.035156 22.792969 8.746094 23.246094 10.492188 23.246094 L 10.496094 23.246094 C 16.226562 23.246094 21 18.382812 21 12.40625 C 21 9.511719 19.820312 6.792969 17.855469 4.742188 Z M 10.496094 21.421875 C 8.9375 21.421875 7.414062 20.988281 6.089844 20.167969 L 5.773438 19.972656 L 2.503906 20.863281 L 3.375 17.539062 L 3.167969 17.195312 C 2.300781 15.761719 1.847656 14.105469 1.847656 12.402344 C 1.847656 7.4375 5.726562 3.394531 10.5 3.394531 C 12.8125 3.394531 14.980469 4.332031 16.613281 6.035156 C 18.242188 7.738281 19.246094 10 19.242188 12.40625 C 19.242188 17.378906 15.261719 21.421875 10.496094 21.421875 Z M 15.238281 14.671875 C 14.980469 14.535156 13.703125 13.882812 13.460938 13.792969 C 13.222656 13.703125 13.050781 13.65625 12.875 13.929688 C 12.703125 14.203125 12.207031 14.808594 12.050781 14.996094 C 11.902344 15.175781 11.746094 15.199219 11.488281 15.0625 C 9.960938 14.269531 8.957031 13.644531 7.949219 11.839844 C 7.683594 11.363281 8.21875 11.398438 8.714844 10.363281 C 8.796875 10.179688 8.757812 10.023438 8.691406 9.886719 C 8.625 9.75 8.105469 8.417969 7.890625 7.875 C 7.679688 7.347656 7.460938 7.421875 7.304688 7.414062 C 7.152344 7.402344 6.980469 7.402344 6.804688 7.402344 C 6.632812 7.402344 6.351562 7.472656 6.113281 7.738281 C 5.875 8.011719 5.203125 8.667969 5.203125 10 C 5.203125 11.332031 6.136719 12.621094 6.261719 12.804688 C 6.394531 12.984375 8.09375 15.71875 10.707031 16.894531 C 12.355469 17.636719 13.003906 17.699219 13.828125 17.574219 C 14.328125 17.496094 15.367188 16.917969 15.582031 16.285156 C 15.796875 15.648438 15.796875 15.109375 15.730469 14.996094 C 15.671875 14.875 15.496094 14.804688 15.238281 14.671875 Z M 15.238281 14.671875 "/>
</svg>
